<svg xmlns="http://www.w3.org/2000/svg" viewBox="0 0 158.46 107.61"><defs><style>.cls-1{fill:#00ff7d;}.cls-2{fill:#fff;}</style></defs><title>Candy</title><g id="Layer_2" data-name="Layer 2"><g id="Layer_1-2" data-name="Layer 1"><path d="M135.05,52.85c-7,0-15.61-1.73-26.17-7.08l1.35-2.68c21.83,11,34.75,5.87,42.48,2.78l.67-.27a3.26,3.26,0,0,0-.33-6.18l-1-.25a4,4,0,0,1-3-2.91,4.26,4.26,0,0,1,1.24-4.18l.21-.19a9.89,9.89,0,0,0,2.09-11.43,9.87,9.87,0,0,0-10-5.94l-.28,0a4.24,4.24,0,0,1-4-1.81,4,4,0,0,1-.25-4.15l.45-.89a3.25,3.25,0,0,0-4.43-4.31l-.65.34c-7.41,3.77-19.82,10.09-25.87,33.79l-2.91-.74c6.39-25,19.55-31.72,27.41-35.73l.65-.33A6.19,6.19,0,0,1,140.1,1.8,6.18,6.18,0,0,1,141.35,9l-.48,1a1,1,0,0,0,.06,1.08,1.23,1.23,0,0,0,1.17.52l.34,0a12.92,12.92,0,0,1,13,7.69,13,13,0,0,1-2.74,14.83l-.25.23A1.21,1.21,0,0,0,152,35.5a1,1,0,0,0,.77.76l1,.27a6.25,6.25,0,0,1,.64,11.85l-.67.27C149.39,50.43,143.33,52.85,135.05,52.85Z"/><path d="M22.7,107.61a6.27,6.27,0,0,1-5.59-9l.48-1a1,1,0,0,0-.06-1.08,1.23,1.23,0,0,0-1.17-.52l-.34,0A13.18,13.18,0,0,1,5.8,73.56l.25-.24a1.19,1.19,0,0,0,.37-1.21,1,1,0,0,0-.77-.76l-1-.27A6.25,6.25,0,0,1,4,59.23L4.64,59c8.19-3.28,21.9-8.78,44.94,2.88l-1.35,2.68c-21.83-11-34.76-5.87-42.48-2.78L5.08,62a3.26,3.26,0,0,0,.33,6.18l1,.25a4,4,0,0,1,3,2.92,4.25,4.25,0,0,1-1.24,4.17l-.21.19A9.89,9.89,0,0,0,5.79,87.15a9.9,9.9,0,0,0,10,5.94l.29,0a4.24,4.24,0,0,1,4,1.81A4,4,0,0,1,20.26,99l-.45.89a3.25,3.25,0,0,0,4.43,4.31l.65-.34C32.3,100.12,44.71,93.8,50.76,70.1l2.91.74c-6.39,25-19.55,31.72-27.42,35.73l-.64.33A6.34,6.34,0,0,1,22.7,107.61Z"/><path class="cls-1" d="M85.22,25.92a49,49,0,0,0-14.77,3.44C79.76,53,74.11,74.72,71.65,82a48.08,48.08,0,0,0,14.64-3S98.24,54.1,85.22,25.92Z"/><path d="M69.54,83.63l.69-2.08c2.65-7.89,7.84-28.71-1.17-51.64l-.55-1.39L69.9,28a50.33,50.33,0,0,1,15.22-3.55l1-.06.43.93c13.17,28.49,1.56,53.3,1.06,54.34l-.26.55-.56.21a49.3,49.3,0,0,1-15.1,3.14Zm2.85-53.4c8,21.45,4.12,40.94,1.36,50.15a46.7,46.7,0,0,0,11.43-2.59,65.68,65.68,0,0,0-.9-50.29A46.85,46.85,0,0,0,72.39,30.23Z"/><path class="cls-2" d="M85.88,25.89c9.36,23.21,4.24,44.61,1.66,52.58.7-.28,1.4-.55,2.09-.86,18.54-8.42,28.76-25.83,22.83-38.89C108.43,29.84,98,25.27,85.88,25.89Z"/><path d="M85.13,81.06l1-3c2.57-7.94,7.53-28.84-1.63-51.56L83.7,24.5l2.1-.11c13.15-.67,23.88,4.59,28,13.71,3.08,6.77,2.26,14.79-2.31,22.56-4.46,7.61-12,14.12-21.26,18.31-.54.25-1.09.47-1.64.69ZM88,27.33c7.53,20.33,4.44,39,1.85,48.5,8.28-3.94,15-9.84,19-16.68s4.82-13.95,2.16-19.81C107.69,31.84,99,27.34,88,27.33Z"/><path class="cls-2" d="M69.57,29.72c-.47.2-.94.37-1.41.59C49.62,38.72,39.4,56.13,45.33,69.2c3.89,8.55,13.75,13.09,25.3,12.85.34,0,.68,0,1,0,2.46-7.31,8.11-29-1.2-52.67Z"/><path d="M69.75,83.56c-12.26,0-21.86-5.1-25.79-13.74C40.89,63,41.71,55,46.27,47.25c4.47-7.61,12-14.11,21.27-18.31q.46-.21.93-.39l.52-.21h0L69.9,28l1.4-.56.55,1.4c9.38,23.85,4,45.5,1.23,53.7l-.33,1-1,0-.76,0H69.75ZM69.6,31.33h0c-.27.1-.54.21-.8.33-8.69,3.95-15.76,10-19.92,17.1C44.8,55.68,44,62.71,46.7,68.58c3.5,7.72,12.41,12.22,23.86,12C73.21,72.19,77.53,52.79,69.6,31.33Z"/></g></g></svg>