<svg xmlns="http://www.w3.org/2000/svg" viewBox="0 0 154.97 124.61"><defs><style>.cls-1,.cls-3,.cls-7{fill:none;}.cls-1,.cls-3,.cls-4,.cls-5,.cls-6,.cls-7,.cls-8{stroke:#000;}.cls-1,.cls-3,.cls-4,.cls-5,.cls-6,.cls-8{stroke-miterlimit:10;}.cls-2,.cls-4,.cls-5,.cls-6{fill:#fff;}.cls-3,.cls-7{stroke-width:0.5px;}.cls-4,.cls-7{stroke-linecap:round;}.cls-6{stroke-width:1.5px;}.cls-7{stroke-linejoin:bevel;}.cls-8{fill:#00ff7d;}</style></defs><title>Candy arm</title><g id="Layer_2" data-name="Layer 2"><g id="Layer_1-2" data-name="Layer 1"><path class="cls-1" d="M78.46,14.14,88,4.65a14.19,14.19,0,0,1,20,0h0a14.18,14.18,0,0,1,0,20.06l-5.13,5.12"/><polygon class="cls-2" points="75.1 21.54 94.46 12.31 134.08 60.67 118.67 70.19 75.1 21.54"/><path d="M94.19,13.55l38.39,46.87L118.85,68.9l-42.12-47,17.46-8.32m.55-2.47L73.46,21.21l45,50.27,17.09-10.56L94.74,11.08Z"/><polygon class="cls-2" points="40.87 49.26 73.39 7.56 81.17 20.79 45.53 56.43 40.87 49.26"/><path d="M73.28,9.34l6.64,11.29L45.69,54.85,42.1,49.31l31.18-40m.23-3.55L39.64,49.2,45.36,58,82.42,21,73.51,5.79Z"/><rect class="cls-3" x="96.14" y="29.85" width="2.63" height="17.83" rx="0.97" transform="translate(-1.63 73.15) rotate(-40.83)"/><path d="M62.63,34.06a.51.51,0,0,1,.36.15l.27.27a.52.52,0,0,1,0,.73l-8.1,8.1a.51.51,0,0,1-.36.15.51.51,0,0,1-.37-.15L54.17,43a.5.5,0,0,1,0-.73l8.09-8.1a.53.53,0,0,1,.37-.15m0-.5a1,1,0,0,0-.72.3L53.81,42a1,1,0,0,0,0,1.44l.27.27a1,1,0,0,0,.72.3,1,1,0,0,0,.72-.3l8.09-8.1a1,1,0,0,0,.3-.72,1,1,0,0,0-.3-.72l-.26-.26a1,1,0,0,0-.72-.3Z"/><rect class="cls-2" x="93.73" y="89.78" width="60.24" height="33.84" rx="4.61"/><path d="M149.36,90.78A3.61,3.61,0,0,1,153,94.39V119a3.61,3.61,0,0,1-3.61,3.61h-51A3.61,3.61,0,0,1,94.73,119V94.39a3.61,3.61,0,0,1,3.61-3.61h51m0-2h-51a5.62,5.62,0,0,0-5.61,5.61V119a5.62,5.62,0,0,0,5.61,5.61h51A5.62,5.62,0,0,0,155,119V94.39a5.62,5.62,0,0,0-5.61-5.61Z"/><path class="cls-4" d="M148.15,92.25a3.36,3.36,0,0,1,3.35,3.35"/><path class="cls-4" d="M96.2,95.6a3.36,3.36,0,0,1,3.35-3.35"/><path class="cls-4" d="M99.55,121.14a3.36,3.36,0,0,1-3.35-3.35"/><path class="cls-5" d="M148.15,121.14H99.55"/><path class="cls-4" d="M151.5,117.79a3.36,3.36,0,0,1-3.35,3.35"/><path class="cls-2" d="M103.41,85.93a2.9,2.9,0,0,1-2.9-2.9V77.82a2.9,2.9,0,0,1,2.9-2.9,5.22,5.22,0,0,0,5.21-5.22V57.21a2.9,2.9,0,0,1,2.9-2.9h24.66a2.9,2.9,0,0,1,2.9,2.9V69.7a5.22,5.22,0,0,0,5.21,5.22,2.9,2.9,0,0,1,2.9,2.9V83a2.9,2.9,0,0,1-2.9,2.9Z"/><path d="M136.18,55.31a1.91,1.91,0,0,1,1.9,1.9V69.7a6.22,6.22,0,0,0,6.21,6.22,1.9,1.9,0,0,1,1.9,1.9V83a1.9,1.9,0,0,1-1.9,1.9H103.41a1.9,1.9,0,0,1-1.9-1.9V77.82a1.9,1.9,0,0,1,1.9-1.9,6.22,6.22,0,0,0,6.21-6.22V57.21a1.91,1.91,0,0,1,1.9-1.9h24.66m0-2H111.52a3.92,3.92,0,0,0-3.9,3.9V69.7a4.21,4.21,0,0,1-4.21,4.22h0a3.91,3.91,0,0,0-3.9,3.9V83a3.91,3.91,0,0,0,3.9,3.9h40.88a3.91,3.91,0,0,0,3.9-3.9V77.82a3.91,3.91,0,0,0-3.9-3.9,4.21,4.21,0,0,1-4.21-4.22V57.21a3.92,3.92,0,0,0-3.9-3.9Z"/><rect class="cls-6" x="16.54" y="46.5" width="34.91" height="9.98" rx="4.99" transform="translate(-3.29 2.33) rotate(-3.74)"/><rect class="cls-6" x="4.59" y="54.98" width="27.25" height="9.98" rx="4.99" transform="translate(-43.98 52.22) rotate(-66)"/><path class="cls-2" d="M76.48,31.5a4.19,4.19,0,0,1-4.09-3.13l-5.62-21a4.17,4.17,0,0,1,.71-3.65,4.17,4.17,0,0,1,4.44-1.51l21,5.63a4.21,4.21,0,0,1,1.88,7L79.43,30.26a4.16,4.16,0,0,1-3,1.24Z"/><path d="M70.81,3.08a3.12,3.12,0,0,1,.85.12l21,5.62a3.21,3.21,0,0,1,1.44,5.37L78.72,29.55a3.13,3.13,0,0,1-2.25.95,3.19,3.19,0,0,1-3.11-2.38l-5.63-21a3.13,3.13,0,0,1,.55-2.78,3.23,3.23,0,0,1,2.53-1.27m0-2a5.22,5.22,0,0,0-5,6.56l5.62,21A5.21,5.21,0,0,0,80.14,31L95.5,15.6a5.2,5.2,0,0,0-2.33-8.71l-21-5.62a5.14,5.14,0,0,0-1.37-.19Z"/><path class="cls-2" d="M71.68,7.51A.66.66,0,0,1,71,6.86a.67.67,0,0,1,.66-.66.66.66,0,0,1,.65.66A.65.65,0,0,1,71.68,7.51Z"/><path d="M71.68,5.2a1.66,1.66,0,1,0,1.65,1.66A1.66,1.66,0,0,0,71.68,5.2Z"/><path class="cls-2" d="M76.8,26.9a.65.65,0,0,1,0-1.3.65.65,0,1,1,0,1.3Z"/><path d="M76.8,24.6a1.65,1.65,0,1,0,1.66,1.65A1.65,1.65,0,0,0,76.8,24.6Z"/><path class="cls-2" d="M91.07,12.78a.67.67,0,0,1-.66-.66.66.66,0,0,1,.66-.65.65.65,0,0,1,.65.65A.66.66,0,0,1,91.07,12.78Z"/><path d="M91.07,10.47a1.66,1.66,0,1,0,1.65,1.65,1.65,1.65,0,0,0-1.65-1.65Z"/><path class="cls-7" d="M123.85,67.38h3.64a3.63,3.63,0,1,1-.88-2.38Z"/><rect class="cls-6" x="26.44" y="58.21" width="34.91" height="9.98" rx="4.99" transform="translate(-26.89 93.37) rotate(-78.3)"/><rect class="cls-6" x="24.13" y="74.76" width="23.2" height="9.98" rx="4.99" transform="translate(-39.81 35.81) rotate(-35.68)"/><circle class="cls-5" cx="46.4" cy="51.07" r="1.51"/><circle class="cls-5" cx="21.32" cy="52.71" r="1.51"/><circle class="cls-5" cx="40.98" cy="75.81" r="1.51"/><path class="cls-5" d="M29,71.48c7.48,1.24,10.73-1.62,12.64-3.18a1.39,1.39,0,0,0-.93-2.47h-.3a.77.77,0,0,1-.7-1.17.56.56,0,0,1,.05-.08,3.43,3.43,0,0,0-4.28-4.79l-.09,0A.77.77,0,0,1,34.28,59c0-.1,0-.2,0-.3A1.4,1.4,0,0,0,32,57.52c-1.76,1.73-5,4.64-4.55,12.21"/><path class="cls-5" d="M13.66,82.05C6.18,80.81,2.93,83.67,1,85.23A1.4,1.4,0,0,0,2,87.71l.3,0A.78.78,0,0,1,3,88.87.56.56,0,0,0,2.9,89a3.42,3.42,0,0,0,4.28,4.78l.09,0a.77.77,0,0,1,1.09.82c0,.1,0,.2,0,.3A1.4,1.4,0,0,0,10.67,96c1.76-1.73,5-4.64,4.56-12.21"/><path class="cls-8" d="M20.55,68.44a14.43,14.43,0,0,0-3.83,2.26,23.21,23.21,0,0,1,5,14.63,14.51,14.51,0,0,0,3.83-2.14A19.52,19.52,0,0,0,20.55,68.44Z"/><path class="cls-5" d="M20.73,68.37a23.21,23.21,0,0,1,5.08,14.57l.51-.43c4.44-4,5.78-9.75,3-12.88C27.38,67.5,24.06,67.14,20.73,68.37Z"/><path class="cls-5" d="M16.51,70.88c-.12.09-.24.18-.35.28-4.44,4-5.78,9.75-3,12.89,1.84,2,5,2.45,8.2,1.37l.29-.09a23.21,23.21,0,0,0-5-14.63Z"/></g></g></svg>